<svg xmlns="http://www.w3.org/2000/svg" version="1.1" xmlns:xlink="http://www.w3.org/1999/xlink" xmlns:svgjs="http://svgjs.com/svgjs" width="512" height="512" x="0" y="0" viewBox="0 0 512.001 512.001" style="enable-background:new 0 0 512 512" xml:space="preserve"><g><path d="M427.194 138.529c1.44 0 2.896-.415 4.181-1.279 3.326-2.24 8.939-5.774 13.975-8.547a32.527 32.527 0 0 0 16.651-28.374V69.673a32.525 32.525 0 0 0-16.65-28.373c-10.207-5.56-22.227-13.69-30.764-21.016C399.068 7.057 379.244-.175 358.868.003c-22.09.162-43.006 8.855-58.896 24.48-15.893 15.629-24.93 36.397-25.448 58.477-.071 1.607.001 133.621-.024 135.041h-37c-.025-2.353.047-132.742-.024-135.039-.813-34.664-23.376-65.964-56.145-77.888a7.5 7.5 0 1 0-5.129 14.095c27.011 9.829 45.608 35.606 46.278 64.147.059 1.559-.001 133.313.02 134.684h-45v-59.954a46.513 46.513 0 0 0-23.848-40.597 7.5 7.5 0 1 0-7.304 13.102c8.859 4.938 14.722 13.819 15.915 23.745-3.225.449-6.487.704-9.763.704-16.15 0-31.908-5.638-44.372-15.876-10.734-8.868-23.137-17.47-34.162-23.518A17.515 17.515 0 0 1 65 100.328V69.673a17.517 17.517 0 0 1 8.967-15.279c11.111-6.062 23.904-14.741 33.177-22.694 10.65-9.077 23.597-14.699 37.442-16.256A7.501 7.501 0 0 0 142.909.537c-16.829 1.894-32.561 8.722-45.496 19.747-8.013 6.903-19.744 14.973-30.761 21.015a32.527 32.527 0 0 0-16.651 28.374v30.657a32.524 32.524 0 0 0 16.651 28.373c9.645 5.278 21.073 13.044 31.956 22.013 15.14 12.436 34.28 19.285 53.893 19.285 3.347 0 6.688-.2 10-.588v48.588h-90c-12.407 0-22.5 10.093-22.5 22.5v174c0 53.762 43.738 97.5 97.5 97.5h217c53.762 0 97.5-43.738 97.5-97.5v-8.394a7.5 7.5 0 0 0-15 0v8.394c0 45.491-37.009 82.5-82.5 82.5h-217c-45.491 0-82.5-37.009-82.5-82.5v-174c0-4.136 3.364-7.5 7.5-7.5h53.5v15.5c0 15.164 12.336 27.5 27.5 27.5h22.309a7.5 7.5 0 0 0 0-15h-22.309c-6.893 0-12.5-5.607-12.5-12.5v-15.5h230v15.5c0 6.893-5.607 12.5-12.5 12.5H210.873a7.5 7.5 0 0 0 0 15H358.5c15.164 0 27.5-12.336 27.5-27.5v-15.5h53.5c4.136 0 7.5 3.364 7.5 7.5v130.117a7.5 7.5 0 0 0 15 0V240.501c0-12.407-10.093-22.5-22.5-22.5h-90v-48.588c3.312.388 6.653.588 10 .588 15.388 0 30.467-4.162 43.606-12.036a7.5 7.5 0 0 0-7.711-12.867c-10.81 6.478-23.223 9.902-35.896 9.902-3.276 0-6.538-.254-9.763-.704 1.193-9.926 7.056-18.807 15.915-23.745a7.5 7.5 0 1 0-7.304-13.102 46.513 46.513 0 0 0-23.848 40.597V218h-45V86.275c.005-.46-.004.23.02-2.962.877-37.394 32.036-68.038 69.457-68.311a69.791 69.791 0 0 1 45.878 16.697c8.794 7.569 21.315 16.179 33.179 22.695a17.515 17.515 0 0 1 8.966 15.278v30.657a17.515 17.515 0 0 1-8.966 15.278c-4.002 2.213-9.12 5.256-15.036 9.198a7.5 7.5 0 0 0 4.197 13.724z" fill="#242424" data-original="#000000" opacity="1"></path><path d="M192.944 79.143c1.913 2.656 5.482 5.27 10.198 2.914a7.5 7.5 0 0 0 2.914-10.198l-15-27a7.5 7.5 0 0 0-13.112 7.284zM320.944 44.859l-15 27a7.499 7.499 0 0 0 2.914 10.198c2.443 1.566 7.699 1.168 10.198-2.914l15-27a7.5 7.5 0 0 0-13.112-7.284zM233.501 343.427c0 12.407 10.093 22.5 22.5 22.5s22.5-10.093 22.5-22.5-10.093-22.5-22.5-22.5-22.5 10.093-22.5 22.5zm30 0c0 4.136-3.364 7.5-7.5 7.5s-7.5-3.364-7.5-7.5 3.364-7.5 7.5-7.5 7.5 3.364 7.5 7.5z" fill="#242424" data-original="#000000" opacity="1"></path><circle cx="414.069" cy="84.508" r="7.493" transform="rotate(-9.25 414.467 84.863)" fill="#242424" data-original="#000000" opacity="1"></circle><circle cx="98.64" cy="84.508" r="7.493" fill="#242424" data-original="#000000" opacity="1"></circle></g></svg>