<svg xmlns="http://www.w3.org/2000/svg" version="1.1" xmlns:xlink="http://www.w3.org/1999/xlink" xmlns:svgjs="http://svgjs.com/svgjs" width="512" height="512" x="0" y="0" viewBox="0 0 60 60" style="enable-background:new 0 0 512 512" xml:space="preserve" class=""><g><path d="M51 16h-2v-5a3 3 0 0 0-3-3h-3.009a.991.991 0 0 0-.284-.707l-7-7A.991.991 0 0 0 35 .009V0H19a2 2 0 0 0-2 2v6h-3a3 3 0 0 0-3 3v5H9a9.01 9.01 0 0 0-9 9v17a4 4 0 0 0 4 4h10.154l-2.042 12.258A1.5 1.5 0 0 0 13.592 60h32.816a1.5 1.5 0 0 0 1.48-1.742L45.846 46H56a4 4 0 0 0 4-4V25a9.01 9.01 0 0 0-9-9Zm-5-6a1 1 0 0 1 1 1v5h-4v-6ZM36 3.414 39.586 7h-3.419A.167.167 0 0 1 36 6.833ZM34 2v4.833A2.169 2.169 0 0 0 36.167 9H41v7H19V2Zm-21 9a1 1 0 0 1 1-1h3v6h-4Zm1.184 47 3.164-19h25.3l3.164 19Zm30.441-19.328A1.993 1.993 0 0 0 42.652 37h-25.3a1.993 1.993 0 0 0-1.973 1.672L14.487 44H13v-7a2 2 0 0 1 2-2h30a2 2 0 0 1 2 2v7h-1.488ZM56 44h-7v-7a4 4 0 0 0-4-4H15a4 4 0 0 0-4 4v7H4a2 2 0 0 1-2-2V28h56v14a2 2 0 0 1-2 2Zm2-18H2v-1a7.009 7.009 0 0 1 7-7h42a7.009 7.009 0 0 1 7 7Z" fill="#242424" data-original="#000000" opacity="1"></path><path d="M43 21h-3a1 1 0 0 0 0 2h3a1 1 0 0 0 0-2ZM51 21h-3a1 1 0 0 0 0 2h3a1 1 0 0 0 0-2Z" fill="#242424" data-original="#000000" opacity="1"></path></g></svg>