<svg xmlns="http://www.w3.org/2000/svg" version="1.1" xmlns:xlink="http://www.w3.org/1999/xlink" xmlns:svgjs="http://svgjs.com/svgjs" width="512" height="512" x="0" y="0" viewBox="0 0 512 512" style="enable-background:new 0 0 512 512" xml:space="preserve" class=""><g><path d="M289.17 160.58a8.06 8.06 0 0 1-3.72-.92L256 144.18l-29.45 15.48a8 8 0 0 1-11.61-8.43l5.63-32.8-23.83-23.23a8 8 0 0 1 4.43-13.64l32.93-4.79 14.73-29.83a8 8 0 0 1 14.34 0l14.73 29.83 32.93 4.79a8 8 0 0 1 4.43 13.64l-23.83 23.23 5.63 32.8a8 8 0 0 1-7.89 9.35zM256 127.14a7.88 7.88 0 0 1 3.72.92l18.83 9.94-3.55-21a8 8 0 0 1 2.3-7.08l15.24-14.85-21.1-3.07a8 8 0 0 1-6-4.37L256 68.55l-9.41 19.08a8 8 0 0 1-6 4.37l-21.05 3.06 15.24 14.85a8 8 0 0 1 2.3 7.08l-3.6 21 18.83-9.89a7.88 7.88 0 0 1 3.69-.96zM145.64 220a8 8 0 0 1-6.53-3.38l-19.21-27.14-33.28.43a8 8 0 0 1-6.51-12.78L100 150.46 89.32 119a8 8 0 0 1 10.15-10.2L131 119.49l26.67-19.9a8 8 0 0 1 12.78 6.51l-.45 33.27 27.17 19.21a8 8 0 0 1-2.25 14.18l-31.77 9.87-9.88 31.78a8 8 0 0 1-6.39 5.52 7.61 7.61 0 0 1-1.24.07zM124 173.43a8 8 0 0 1 6.53 3.38l12.28 17.37 6.32-20.31a8 8 0 0 1 5.26-5.27l20.31-6.31L157.34 150a8 8 0 0 1-3.38-6.64l.27-21.27-17 12.73a8 8 0 0 1-7.35 1.16l-20.15-6.83 6.83 20.14a8 8 0 0 1-1.16 7.36l-12.72 17 21.27-.27zM70 337.15a7.78 7.78 0 0 1-2.47-.39 8 8 0 0 1-5.45-6.45l-4.78-32.93-29.84-14.73a8 8 0 0 1 0-14.35l29.84-14.72 4.78-32.93a8 8 0 0 1 13.65-4.44L99 240l32.8-5.62a8 8 0 0 1 8.43 11.6l-15.53 29.5 15.48 29.45a8 8 0 0 1-8.43 11.61L99 310.91l-23.27 23.83a8 8 0 0 1-5.73 2.41zm-20.92-61.67 19.07 9.41a8 8 0 0 1 4.38 6l3.06 21 14.84-15.23a8 8 0 0 1 7.08-2.3l21 3.6-9.9-18.83a8 8 0 0 1 0-7.45l9.9-18.82-21 3.59a8 8 0 0 1-7.08-2.3L75.59 239l-3.06 21a8 8 0 0 1-4.38 6zM442 337.15a8 8 0 0 1-5.73-2.41l-23.22-23.83-32.8 5.63a8 8 0 0 1-8.43-11.61l15.48-29.45L371.82 246a8 8 0 0 1 8.43-11.6l32.8 5.62 23.22-23.83a8 8 0 0 1 13.65 4.44l4.78 32.93 29.84 14.72a8 8 0 0 1 0 14.35l-29.84 14.75-4.78 32.93a8 8 0 0 1-5.45 6.45 7.78 7.78 0 0 1-2.47.39zm-26.16-42.83a8 8 0 0 1 5.73 2.41L436.41 312l3.06-21a8 8 0 0 1 4.38-6l19.07-9.41-19.07-9.42a8 8 0 0 1-4.38-6L436.41 239l-14.84 15.23a8 8 0 0 1-7.08 2.3l-21-3.59 9.9 18.82a8 8 0 0 1 0 7.45L393.52 298l21-3.6a7.68 7.68 0 0 1 1.32-.08zM366.36 220a7.61 7.61 0 0 1-1.25-.1 8 8 0 0 1-6.39-5.52l-9.88-31.78-31.77-9.87a8 8 0 0 1-2.25-14.18L342 139.37l-.42-33.27a8 8 0 0 1 12.78-6.51l26.64 19.9 31.51-10.69a8 8 0 0 1 10.17 10.2L412 150.46l19.9 26.67a8 8 0 0 1-6.51 12.78l-33.28-.43-19.21 27.17a8 8 0 0 1-6.54 3.35zm-29.06-57.71 20.31 6.31a8 8 0 0 1 5.26 5.27l6.32 20.31 12.28-17.37a8 8 0 0 1 6.63-3.38l21.27.27-12.72-17a8 8 0 0 1-1.16-7.36l6.83-20.14-20.15 6.8a8 8 0 0 1-7.35-1.16l-17.05-12.74.27 21.27a8 8 0 0 1-3.38 6.64zM352.77 361.2H297.3a8 8 0 0 1 0-16h55.47a8 8 0 1 0 0-16.1H297.3a8 8 0 0 1 0-16h55.47a24.05 24.05 0 1 1 0 48.1z" fill="#242424" data-original="#000000" class="" opacity="1"></path><path d="M350.77 397.31h-51.46a8 8 0 0 1 0-16h51.46a10.06 10.06 0 0 0 0-20.11h-51.46a8 8 0 0 1 0-16h51.46a26.06 26.06 0 0 1 0 52.11z" fill="#242424" data-original="#000000" class="" opacity="1"></path><path d="M350.77 433.42h-51.46a8 8 0 0 1 0-16h51.46a10.06 10.06 0 0 0 0-20.11h-51.46a8 8 0 0 1 0-16h51.46a26.06 26.06 0 0 1 0 52.11z" fill="#242424" data-original="#000000" class="" opacity="1"></path><path d="M350.77 469.52H195.44a8 8 0 0 1 0-16h155.33a10.05 10.05 0 1 0 0-20.1 8 8 0 0 1 0-16 26 26 0 1 1 0 52.1z" fill="#242424" data-original="#000000" class="" opacity="1"></path><path d="M201.46 469.52h-58.28a8 8 0 0 1-8-8V337.15a8 8 0 0 1 8-8h58.28a8 8 0 0 1 8 8v124.37a8 8 0 0 1-8 8zm-50.28-16h42.28V345.15h-42.28z" fill="#242424" data-original="#000000" class="" opacity="1"></path><path d="M203.41 345.23a25.18 25.18 0 0 1-2.91-.14l1.92-15.88h-.09c1.27.12 31.27 2.44 52.38-45.78a107.62 107.62 0 0 0 8.53-35.9c.78-11.34 4.36-18.65 10.63-21.73 5.58-2.74 12-1.72 19.16 3a43.35 43.35 0 0 1 18.13 26.56c3.06 13.29 4.61 33.47-5.39 54.11-.26.54-.55 1-.88 1.62a14.51 14.51 0 0 0-1.94 4.32 8 8 0 0 1-11.13 11.5c-6.25-5.88-6.51-13.89-.79-23.81.15-.26.28-.48.37-.65 7.94-16.4 6.65-32.72 4.16-43.5a27.34 27.34 0 0 0-11.4-16.83 13.44 13.44 0 0 0-3.24-1.7c-.55 1-1.4 3.52-1.72 8.18a123.71 123.71 0 0 1-9.83 41.21c-22.47 51.34-55.9 55.42-65.96 55.42zM172.32 406.2a8 8 0 0 1-8-8v-34.93a8 8 0 0 1 16 0v34.93a8 8 0 0 1-8 8z" fill="#242424" data-original="#000000" class="" opacity="1"></path></g></svg>