<svg xmlns="http://www.w3.org/2000/svg" version="1.1" xmlns:xlink="http://www.w3.org/1999/xlink" xmlns:svgjs="http://svgjs.com/svgjs" width="512" height="512" x="0" y="0" viewBox="0 0 64 64" style="enable-background:new 0 0 512 512" xml:space="preserve" class=""><g><g data-name="Shopping Bag-Hands-Bag-Purchase-Buy"><path d="M43 12h-4V9a7 7 0 0 0-14 0v3h-4a1 1 0 0 0-1 1v22a3.009 3.009 0 0 0 3 3h13v-2H23a1 1 0 0 1-1-1v-1h14v-2H22V14h3v3h2v-3h10v3h2v-3h3v3h2v-4a1 1 0 0 0-1-1zm-6 0H27V9a5 5 0 0 1 10 0z" fill="#000000" data-original="#000000" class=""></path><path d="M57 19H39a1 1 0 0 0-1 1v15a3.009 3.009 0 0 0 3 3h14a3.009 3.009 0 0 0 3-3V20a1 1 0 0 0-1-1zm-1 16a1 1 0 0 1-1 1H41a1 1 0 0 1-1-1v-1h16zm0-3H40V21h16z" fill="#000000" data-original="#000000" class=""></path><path d="M48 30a5.006 5.006 0 0 0 5-5v-2h-2v2a3 3 0 0 1-6 0v-2h-2v2a5.006 5.006 0 0 0 5 5zM62.332 44.55a4.109 4.109 0 0 0-5.176-2.062l-8.93 3.25a4 4 0 0 0-3.174-2.959l-12.063-2.127a15.018 15.018 0 0 0-7.735.677L23.7 41.9a16.917 16.917 0 0 0-4.1 2.179l-.221-.607a1 1 0 0 0-1.281-.6l-11.277 4.1a1 1 0 0 0-.6 1.281l-4.7 1.71.684 1.879 4.7-1.71 4.079 11.208 1.879-.684L8.447 48.51l9.4-3.42 5.131 14.1-2.4.875.684 1.878 3.338-1.22a1 1 0 0 0 .6-1.282l-.342-.94 2.3-.838a10.943 10.943 0 0 1 4.523-.638l4.744.329a12.842 12.842 0 0 0 5.345-.753l18.28-6.653a4 4 0 0 0 2.281-5.4zm-1.838 2.483a1.984 1.984 0 0 1-1.127 1.035l-18.28 6.654a10.893 10.893 0 0 1-4.523.637l-4.744-.329a12.959 12.959 0 0 0-5.344.753l-2.306.839-3.855-10.592a14.922 14.922 0 0 1 4.07-2.256l1.552-.565a13.015 13.015 0 0 1 6.705-.587L44.7 44.749a2 2 0 1 1-.694 3.939l-10.833-1.91-.348 1.97 10.833 1.91a3.982 3.982 0 0 0 4.506-2.77l9.672-3.521a2.13 2.13 0 0 1 2.667 1 2.01 2.01 0 0 1-.009 1.666z" fill="#000000" data-original="#000000" class=""></path></g></g></svg>