<svg xmlns="http://www.w3.org/2000/svg" version="1.1" xmlns:xlink="http://www.w3.org/1999/xlink" xmlns:svgjs="http://svgjs.com/svgjs" width="512" height="512" x="0" y="0" viewBox="0 0 64 64" style="enable-background:new 0 0 512 512" xml:space="preserve" class=""><g><g data-name="Layer 3"><path d="M61 8H3a3 3 0 0 0-3 3v32a3 3 0 0 0 3 3h25v4h-2a5.006 5.006 0 0 0-5 5 1 1 0 0 0 1 1h20a1 1 0 0 0 1-1 5.006 5.006 0 0 0-5-5h-2v-4h7a1 1 0 0 0 0-2H3a1 1 0 0 1-1-1V11a1 1 0 0 1 1-1h58a1 1 0 0 1 1 1v8a1 1 0 0 0 2 0v-8a3 3 0 0 0-3-3zM40.829 54H23.171A3.006 3.006 0 0 1 26 52h12a3.006 3.006 0 0 1 2.829 2zM34 46v4h-4v-4z" fill="#242424" data-original="#000000" opacity="1" class=""></path><path d="M61 56H49a3 3 0 0 1-3-3V25a3 3 0 0 1 3-3h12a3 3 0 0 1 3 3v28a3 3 0 0 1-3 3zM49 24a1 1 0 0 0-1 1v28a1 1 0 0 0 1 1h12a1 1 0 0 0 1-1V25a1 1 0 0 0-1-1z" fill="#242424" data-original="#000000" opacity="1" class=""></path><path d="M55 48a5 5 0 1 1 5-5 5.006 5.006 0 0 1-5 5zm0-8a3 3 0 1 0 3 3 3 3 0 0 0-3-3z" fill="#242424" data-original="#000000" opacity="1" class=""></path><circle cx="51" cy="27" r="1" fill="#242424" data-original="#000000" opacity="1" class=""></circle><circle cx="55" cy="27" r="1" fill="#242424" data-original="#000000" opacity="1" class=""></circle><circle cx="59" cy="27" r="1" fill="#242424" data-original="#000000" opacity="1" class=""></circle><circle cx="51" cy="31" r="1" fill="#242424" data-original="#000000" opacity="1" class=""></circle><circle cx="55" cy="31" r="1" fill="#242424" data-original="#000000" opacity="1" class=""></circle><circle cx="59" cy="31" r="1" fill="#242424" data-original="#000000" opacity="1" class=""></circle><circle cx="51" cy="35" r="1" fill="#242424" data-original="#000000" opacity="1" class=""></circle><circle cx="55" cy="35" r="1" fill="#242424" data-original="#000000" opacity="1" class=""></circle><circle cx="59" cy="35" r="1" fill="#242424" data-original="#000000" opacity="1" class=""></circle><circle cx="51" cy="51" r="1" fill="#242424" data-original="#000000" opacity="1" class=""></circle><circle cx="55" cy="51" r="1" fill="#242424" data-original="#000000" opacity="1" class=""></circle><circle cx="59" cy="51" r="1" fill="#242424" data-original="#000000" opacity="1" class=""></circle></g></g></svg>